<mxfile host="app.diagrams.net" agent="Mozilla/5.0 (Macintosh; Intel Mac OS X 10_15_7) AppleWebKit/537.36 (KHTML, like Gecko) Chrome/127.0.0.0 Safari/537.36" version="24.7.7">
  <diagram id="C5RBs43oDa-KdzZeNtuy" name="Page-1">
    <mxGraphModel dx="810" dy="629" grid="1" gridSize="10" guides="1" tooltips="1" connect="1" arrows="1" fold="1" page="1" pageScale="1" pageWidth="827" pageHeight="1169" math="0" shadow="0">
      <root>
        <mxCell id="WIyWlLk6GJQsqaUBKTNV-0" />
        <mxCell id="WIyWlLk6GJQsqaUBKTNV-1" parent="WIyWlLk6GJQsqaUBKTNV-0" />
        <mxCell id="7tePluLFW1gzM-8hJj4O-15" value="" style="edgeStyle=orthogonalEdgeStyle;rounded=0;orthogonalLoop=1;jettySize=auto;html=1;" edge="1" parent="WIyWlLk6GJQsqaUBKTNV-1" source="7tePluLFW1gzM-8hJj4O-0" target="7tePluLFW1gzM-8hJj4O-14">
          <mxGeometry relative="1" as="geometry" />
        </mxCell>
        <mxCell id="7tePluLFW1gzM-8hJj4O-0" value="시작" style="rounded=0;whiteSpace=wrap;html=1;" vertex="1" parent="WIyWlLk6GJQsqaUBKTNV-1">
          <mxGeometry x="160" y="20" width="80" height="30" as="geometry" />
        </mxCell>
        <mxCell id="7tePluLFW1gzM-8hJj4O-7" style="edgeStyle=orthogonalEdgeStyle;rounded=0;orthogonalLoop=1;jettySize=auto;html=1;exitX=1;exitY=0.5;exitDx=0;exitDy=0;" edge="1" parent="WIyWlLk6GJQsqaUBKTNV-1" source="7tePluLFW1gzM-8hJj4O-5">
          <mxGeometry relative="1" as="geometry">
            <mxPoint x="200" y="169" as="targetPoint" />
            <Array as="points">
              <mxPoint x="350" y="299" />
              <mxPoint x="350" y="169" />
            </Array>
          </mxGeometry>
        </mxCell>
        <mxCell id="7tePluLFW1gzM-8hJj4O-8" value="Yes" style="edgeLabel;html=1;align=center;verticalAlign=middle;resizable=0;points=[];" vertex="1" connectable="0" parent="7tePluLFW1gzM-8hJj4O-7">
          <mxGeometry x="-0.6045" relative="1" as="geometry">
            <mxPoint x="-13" y="30" as="offset" />
          </mxGeometry>
        </mxCell>
        <mxCell id="7tePluLFW1gzM-8hJj4O-24" style="edgeStyle=orthogonalEdgeStyle;rounded=0;orthogonalLoop=1;jettySize=auto;html=1;exitX=0.5;exitY=1;exitDx=0;exitDy=0;entryX=0.5;entryY=0;entryDx=0;entryDy=0;" edge="1" parent="WIyWlLk6GJQsqaUBKTNV-1" source="7tePluLFW1gzM-8hJj4O-5" target="7tePluLFW1gzM-8hJj4O-23">
          <mxGeometry relative="1" as="geometry" />
        </mxCell>
        <mxCell id="7tePluLFW1gzM-8hJj4O-25" value="No" style="edgeLabel;html=1;align=center;verticalAlign=middle;resizable=0;points=[];" vertex="1" connectable="0" parent="7tePluLFW1gzM-8hJj4O-24">
          <mxGeometry x="-0.3938" relative="1" as="geometry">
            <mxPoint x="12" y="-7" as="offset" />
          </mxGeometry>
        </mxCell>
        <mxCell id="7tePluLFW1gzM-8hJj4O-5" value="로또 번호 &lt;a href=&quot;https://developer.apple.com/documentation/swift/set/count&quot;&gt;컬렉션(Set)의 길이(count)&lt;/a&gt;가&lt;br&gt;6보다 작은 가?" style="rhombus;whiteSpace=wrap;html=1;rounded=0;" vertex="1" parent="WIyWlLk6GJQsqaUBKTNV-1">
          <mxGeometry x="70" y="249" width="260" height="100" as="geometry" />
        </mxCell>
        <mxCell id="7tePluLFW1gzM-8hJj4O-19" style="edgeStyle=orthogonalEdgeStyle;rounded=0;orthogonalLoop=1;jettySize=auto;html=1;exitX=0.5;exitY=1;exitDx=0;exitDy=0;entryX=0.5;entryY=0;entryDx=0;entryDy=0;" edge="1" parent="WIyWlLk6GJQsqaUBKTNV-1" source="7tePluLFW1gzM-8hJj4O-11" target="7tePluLFW1gzM-8hJj4O-5">
          <mxGeometry relative="1" as="geometry" />
        </mxCell>
        <mxCell id="7tePluLFW1gzM-8hJj4O-11" value="1부터 45사이의 &lt;a href=&quot;https://developer.apple.com/documentation/swift/int/random(in:)-9mjpw&quot;&gt;랜덤한 숫자(Int)를 생성&lt;/a&gt;하여&lt;br&gt;로또 번호 &lt;a href=&quot;https://developer.apple.com/documentation/swift/set/insert(_:)-nads&quot;&gt;컬렉션(Set)에 담기(insert)&lt;/a&gt;" style="rounded=0;whiteSpace=wrap;html=1;" vertex="1" parent="WIyWlLk6GJQsqaUBKTNV-1">
          <mxGeometry x="83.75" y="189" width="232.5" height="40" as="geometry" />
        </mxCell>
        <mxCell id="7tePluLFW1gzM-8hJj4O-17" style="edgeStyle=orthogonalEdgeStyle;rounded=0;orthogonalLoop=1;jettySize=auto;html=1;exitX=0.5;exitY=1;exitDx=0;exitDy=0;entryX=0.5;entryY=0;entryDx=0;entryDy=0;" edge="1" parent="WIyWlLk6GJQsqaUBKTNV-1" source="7tePluLFW1gzM-8hJj4O-14" target="7tePluLFW1gzM-8hJj4O-11">
          <mxGeometry relative="1" as="geometry">
            <mxPoint x="200" y="200" as="targetPoint" />
          </mxGeometry>
        </mxCell>
        <mxCell id="7tePluLFW1gzM-8hJj4O-14" value="Int 타입의 로또 번호를 담을&lt;br&gt;빈 컬렉션(Set) 선언" style="rounded=0;whiteSpace=wrap;html=1;" vertex="1" parent="WIyWlLk6GJQsqaUBKTNV-1">
          <mxGeometry x="112.5" y="100" width="175" height="40" as="geometry" />
        </mxCell>
        <mxCell id="7tePluLFW1gzM-8hJj4O-23" value="로또 번호 컬렉션(Set) 반환" style="rounded=0;whiteSpace=wrap;html=1;" vertex="1" parent="WIyWlLk6GJQsqaUBKTNV-1">
          <mxGeometry x="112.5" y="399" width="175" height="40" as="geometry" />
        </mxCell>
      </root>
    </mxGraphModel>
  </diagram>
</mxfile>
